<?xml version="1.0" encoding="UTF-8"?>
<svg xmlns="http://www.w3.org/2000/svg" xmlns:xlink="http://www.w3.org/1999/xlink" width="113pt" height="32pt" viewBox="0 0 113 32" version="1.1">
<g id="surface1">
<path style=" stroke:none;fill-rule:nonzero;fill:rgb(20%,31.372549%,72.156863%);fill-opacity:1;" d="M 19.949219 0.0078125 L 3.984375 0.0078125 C 2.75 0.71875 1.234375 0.71875 0 0.0078125 L 0 9.730469 L 19.949219 9.730469 Z M 19.949219 0.0078125 "/>
<path style=" stroke:none;fill-rule:nonzero;fill:rgb(100%,75.294118%,0%);fill-opacity:1;" d="M 27.886719 0.0078125 L 19.949219 0.0078125 L 19.949219 17.324219 L 23.554688 13.730469 L 31.867188 13.730469 L 31.867188 4.007812 C 32.96875 -4.824219 26.726562 -12.878906 17.925781 -13.984375 C 9.125 -15.089844 1.101562 -8.824219 0 0.0078125 Z M 27.886719 0.0078125 "/>
<path style=" stroke:none;fill-rule:nonzero;fill:rgb(0%,61.176471%,28.627451%);fill-opacity:1;" d="M 31.867188 13.730469 L 23.554688 13.730469 L 19.949219 17.324219 L 19.949219 13.730469 L 0 13.730469 L 0 27.992188 C -7.699219 27.992188 -13.941406 21.730469 -13.941406 14 C -13.941406 6.273438 -7.699219 0.0078125 0 0.0078125 L 23.902344 0.0078125 C 23.902344 6.632812 18.550781 12.003906 11.949219 12.003906 C 5.351562 12.003906 0 6.632812 0 0.0078125 L 0 -14.257812 Z M 31.867188 13.730469 "/>
<path style=" stroke:none;fill-rule:nonzero;fill:rgb(100%,100%,100%);fill-opacity:1;" d="M 7.816406 6.867188 L 9.253906 6.867188 L 9.253906 11.195312 L 7.816406 11.195312 Z M 10.6875 3.894531 L 12.125 3.894531 L 12.125 11.195312 L 10.6875 11.195312 Z M 4.941406 5.339844 L 6.378906 5.339844 L 6.378906 11.195312 L 4.941406 11.195312 Z M 13.5625 2.542969 L 15 2.542969 L 15 11.195312 L 13.5625 11.195312 Z M 16.484375 22.367188 L 15.382812 22.367188 C 9.230469 26.628906 0.800781 25.082031 -3.449219 18.90625 C -7.695312 12.734375 -6.152344 4.273438 0 0.0078125 L 3.238281 0.0078125 L 3.238281 -1.414062 L 1.265625 -1.414062 L 1.265625 -2.675781 L -0.164062 -2.675781 L -0.164062 18.816406 C -5.339844 18.769531 -9.496094 14.523438 -9.453125 9.328125 C -9.40625 4.136719 -5.175781 -0.0390625 0 0.0078125 L 1.097656 0.0078125 C 1.507812 0.253906 1.703125 0.746094 1.574219 1.210938 C 1.445312 1.671875 1.027344 1.992188 0.546875 1.992188 C 0.0703125 1.992188 -0.347656 1.671875 -0.476562 1.210938 C -0.605469 0.746094 -0.410156 0.253906 0 0.0078125 L -3.230469 0.0078125 L -3.230469 1.433594 L -1.265625 1.433594 L -1.265625 2.695312 L 0.164062 2.695312 L 0.164062 1.429688 C -0.226562 2.804688 -1.65625 3.605469 -3.027344 3.214844 C -4.402344 2.820312 -5.199219 1.386719 -4.808594 0.0078125 Z M 16.484375 22.367188 "/>
<path style=" stroke:none;fill-rule:nonzero;fill:rgb(100%,100%,100%);fill-opacity:1;" d="M 22.824219 6.300781 L 22.824219 4.859375 L 28.996094 4.859375 L 28.996094 6.300781 Z M 22.824219 6.300781 "/>
<path style=" stroke:none;fill-rule:nonzero;fill:rgb(100%,100%,100%);fill-opacity:1;" d="M 22.820312 9.183594 L 22.820312 7.742188 L 28.992188 7.742188 L 28.992188 9.183594 Z M 22.820312 9.183594 "/>
<path style=" stroke:none;fill-rule:nonzero;fill:rgb(20%,31.372549%,72.156863%);fill-opacity:1;" d="M 54.753906 8.015625 L 54.753906 24.113281 L 52.109375 24.113281 L 52.109375 11.832031 L 46.746094 19.265625 L 41.625 11.875 L 41.625 24.113281 L 39.050781 24.113281 L 39.050781 8.015625 L 41.8125 8.015625 L 46.863281 15.496094 L 52.03125 8.015625 Z M 59.265625 22.832031 C 58.292969 21.738281 57.808594 20.148438 57.808594 18.054688 C 57.808594 13.824219 59.734375 11.707031 63.582031 11.707031 C 65.519531 11.707031 66.980469 12.25 67.957031 13.335938 C 68.933594 14.421875 69.421875 15.992188 69.425781 18.054688 C 69.425781 20.113281 68.917969 21.699219 67.910156 22.808594 C 66.898438 23.917969 65.464844 24.472656 63.605469 24.472656 C 61.679688 24.472656 60.234375 23.925781 59.265625 22.832031 Z M 66.898438 18.054688 C 66.898438 16.640625 66.632812 15.582031 66.105469 14.878906 C 65.578125 14.179688 64.734375 13.828125 63.582031 13.824219 C 62.410156 13.824219 61.574219 14.183594 61.066406 14.898438 C 60.5625 15.617188 60.308594 16.667969 60.308594 18.050781 C 60.308594 19.433594 60.570312 20.492188 61.089844 21.222656 C 61.613281 21.953125 62.441406 22.320312 63.582031 22.320312 C 65.792969 22.324219 66.898438 20.902344 66.898438 18.054688 Z M 82.023438 13.347656 C 82.957031 14.425781 83.421875 15.957031 83.421875 17.933594 C 83.421875 20.316406 82.863281 22 81.75 22.992188 C 80.632812 23.980469 79.21875 24.472656 77.503906 24.472656 C 74.058594 24.472656 72.335938 23.558594 72.335938 21.722656 L 72.335938 7.144531 L 74.835938 7.144531 L 74.835938 12.480469 C 74.554688 9.304688 76.285156 6.292969 79.164062 4.945312 C 82.039062 3.597656 85.449219 4.203125 87.695312 6.457031 C 89.941406 8.707031 90.542969 12.132812 89.199219 15.019531 C 87.855469 17.90625 84.855469 19.640625 81.695312 19.363281 C 83.488281 19.363281 84.851562 19.902344 85.777344 20.980469 Z M 80.066406 21.144531 C 80.585938 20.386719 80.847656 19.347656 80.847656 18.03125 C 80.847656 16.679688 80.570312 15.648438 80.015625 14.941406 C 79.464844 14.234375 78.640625 13.878906 77.550781 13.878906 C 78.332031 15.425781 78.398438 17.238281 77.730469 18.839844 L 77.730469 25.355469 C 77.730469 26.144531 78.558594 26.539062 80.207031 26.539062 C 81.523438 26.539062 82.441406 26.160156 82.957031 25.402344 Z M 86.429688 12.070312 L 88.953125 12.070312 L 88.976562 24.113281 L 86.429688 24.113281 Z M 92.605469 24.113281 L 92.605469 7.410156 L 95.109375 7.410156 L 95.109375 24.113281 Z M 98.664062 24.113281 L 98.664062 7.410156 L 101.167969 7.410156 L 101.167969 24.113281 Z M 106.132812 24.234375 C 105.515625 29.9375 100.75 34.28125 95.03125 34.355469 C 89.308594 34.425781 84.4375 30.203125 83.675781 24.511719 C 82.917969 18.824219 86.507812 13.460938 92.042969 12.015625 C 97.578125 10.570312 103.316406 13.5 105.414062 18.839844 L 105.414062 21.117188 C 103.453125 16.378906 105.101562 10.914062 109.347656 8.0625 C 113.597656 5.210938 119.261719 5.769531 122.875 9.398438 C 126.488281 13.023438 127.042969 18.707031 124.203125 22.96875 C 121.359375 27.234375 115.914062 28.886719 111.195312 26.921875 C 111.882812 26.921875 112.425781 26.78125 112.816406 26.5 C 113.300781 26.734375 113.589844 27.25 113.535156 27.789062 C 113.480469 28.328125 113.097656 28.777344 112.574219 28.914062 C 112.054688 29.046875 111.503906 28.84375 111.195312 28.398438 C 110.886719 27.953125 110.886719 27.363281 111.195312 26.921875 C 111.195312 26.484375 111.035156 26.164062 110.714844 25.953125 C 110.515625 26.292969 110.289062 26.617188 110.042969 26.921875 L 109.488281 26.726562 C 108.367188 26.453125 107.472656 26.058594 106.8125 25.542969 C 106.148438 25.027344 105.816406 24.222656 105.8125 23.132812 C 105.8125 22.277344 106.039062 21.570312 106.484375 21.007812 C 108.160156 19.324219 110.878906 19.324219 112.550781 21.007812 C 114.226562 22.6875 114.226562 25.414062 112.550781 27.097656 L 112.550781 29.269531 C 112.421875 30.746094 112.121094 32.203125 111.660156 33.609375 C 111.003906 33.609375 110.472656 33.730469 110.074219 33.972656 C 110.328125 33.6875 110.707031 33.550781 111.085938 33.609375 C 111.085938 34.121094 111.285156 34.496094 111.6875 34.730469 C 112.085938 34.96875 112.710938 35.207031 113.5625 35.445312 C 108.960938 29.144531 109.96875 20.355469 115.871094 15.269531 C 121.777344 10.1875 130.589844 10.523438 136.089844 16.046875 C 141.59375 21.566406 141.929688 30.410156 136.863281 36.335938 C 131.796875 42.261719 123.039062 43.273438 116.761719 38.65625 C 117.125 39.132812 117.304688 39.78125 117.304688 40.601562 C 117.289062 41.886719 116.820312 42.847656 115.902344 43.484375 C 114.984375 44.121094 113.859375 44.441406 112.523438 44.4375 C 111.289062 48.054688 107.664062 50.273438 103.894531 49.722656 C 100.125 49.171875 97.28125 46.007812 97.121094 42.191406 C 96.960938 38.371094 99.535156 34.980469 103.242188 34.113281 C 106.953125 33.25 110.75 35.160156 112.285156 38.65625 Z M 106.132812 24.234375 "/>
<path style=" stroke:none;fill-rule:nonzero;fill:rgb(20%,31.372549%,72.156863%);fill-opacity:1;" d="M 87.699219 7.40625 L 87.703125 7.40625 C 88.445312 7.40625 89.046875 8.011719 89.046875 8.757812 L 89.046875 8.761719 C 89.046875 9.507812 88.445312 10.109375 87.703125 10.109375 L 87.699219 10.109375 C 86.957031 10.109375 86.355469 9.507812 86.355469 8.761719 L 86.355469 8.757812 C 86.355469 8.011719 86.957031 7.40625 87.699219 7.40625 Z M 87.699219 7.40625 "/>
</g>
</svg>
